<svg xmlns="http://www.w3.org/2000/svg" viewBox="0 0 477.63339 236.05674" height="892.183" width="1805.228">
    <defs>
        <clipPath id="a">
            <path fill="#e1e1dc" fill-rule="evenodd" stroke="#000" stroke-width=".265" d="M.649 15.971h477.633v236.057H.649z"/>
        </clipPath>
    </defs>
    <g font-weight="400" font-family="Sigmar One" letter-spacing="0" word-spacing="0" text-anchor="middle" fill="none" stroke="#3c3c32" stroke-width=".397">
        <path d="M194.504 89.247q-1.377 0-2.005-.014-.575 0-.883-.013l-1.096-.014q-.12 0-.228-.107-.107-.107-.107-.227v-4.225l-.013-1.097q0-.548.027-1.377 0-.174.04-.896v-.307q0-.375.147-.602.067-.12.214-.12.655 0 1.43.026.108.014.308.014.441 0 .655.013h1.03q.267 0 .414.067.241.134.241.615l-.013.107q0 .04-.027.2-.04.201-.04.295 0 .147.04.374.027.16.027.214l.013.08v3.73q0 .108.12.135.04.013.174.013h.976q.361-.013 1.097-.013.147 0 .24.093.094.08.094.174v2.581q0 .107-.107.174-.12.053-.28.066-.174.04-.549.04zM198.917 89.26q-.094 0-.174-.067-.08-.08-.12-.2-.054-.241-.08-.535-.014-.094-.014-.254v-.174l.014-1.658q0-.843.04-1.658v-4.226q0-.133.174-.133.922 0 1.377-.014h1.337q.04 0 .067-.013.027-.014.067-.014.173-.026.481-.013.227 0 .481.04.08.054.12.027.027 0 .108-.027.2 0 .307.027.12.026.187.12.067.12.107.294.014.134.014.562V84.15q-.014.108-.014.482 0 .401-.026.629l-.014.601q-.013.201-.013.509l-.014.213v.856q0 .803-.066 1.364 0 .187-.094.375-.24 0-.695.026-.214 0-.281.027H202.019q-.094 0-.094-.027-.107-.026-.12-.026l-.107.053h-1.23q-.013.013-.214.013H199.251zM206.491 89.287q-.133 0-.214-.027h-.601l-.602-.147-.053-.107q-.014 0-.014-.147 0-.187-.013-.308l-.014-.615q-.013-.2-.013-.601l-.027-1.03q0-.334.027-.923l.013-.454q.027-.428.027-1.404v-.268q-.027-.04-.027-.147l-.013-.093q0-.335.04-.696.027-.454.027-.829l-.014-.374q-.013-.147-.013-.348 0-.013-.027-.04-.013-.027-.013-.053 0-.134.107-.228.107-.093.267-.133.214-.067.548-.067h3.303q.014 0 .04.026.027.027.054.04.107.094.267.361.04.08.08.188.054.093.134.307.094.214.254.655l.16.415q.108.2.241.575l.08.214q.054.107.094.214.027.093.054.147.04.04.04.053.093.214.2.214.134 0 .214-.214.014-.013.027-.053.013-.054.067-.16l.2-.442.535-1.136.228-.482q.04-.107.053-.174.027-.08.054-.107.053-.12.254-.414.066-.107.12-.16.04-.014.054-.04.013-.027.04-.027h4.105q.026 0 .067.2l.04 1.31q.026.562.026 1.766v.775q0 .455-.04 1.016-.04.562-.053.722l-.027.268v.468q.013.187.013.561 0 .402.014.602 0 .388.027.535v.535l-.04.107-.602.147h-.602q-.094.027-.227.027-.241 0-.669-.027l-.334-.013q-.094-.014-.214-.027-.12-.014-.294-.014l-.522-.04q-.026 0-.04.014h-.107q-.067 0-.08-.147-.08-.268-.08-.91 0-.427-.014-.668l-.013-.722q-.013-.24-.013-.696 0-.106-.094-.106-.054 0-.107.133l-.147.361-.12.335-.054.16q-.027.08-.067.147l-.067.16q-.12.268-.307.602-.2.361-.495.575-.16.094-.28.094h-.201q-.16 0-.268-.027H210.29q-.535-.856-1.003-1.872l-.2-.495q-.08-.173-.108-.173-.093 0-.093.107v.628q0 .936-.027 1.377-.027.696-.094.963-.013.174-.08.174h-.093l-.067-.014q-.455.027-.722.054-.16.013-.562.04-.401.027-.749.027zM223.602 89.568q-1.591 0-2.514-.255-1.284-.334-1.952-1.243-.776-1.083-.776-3.009 0-1.377.308-2.34.307-.962.95-1.577.64-.616 1.644-.896 1.016-.295 2.473-.295 1.137 0 2.14.348 1.23.441 1.912 1.35.842 1.084.842 2.849 0 2.059-.615 3.209-.615 1.056-1.778 1.497-.95.362-2.634.362zm-.107-1.298q.16 0 .254-.2.2-.428.28-1.35.08-.843.08-1.592v-.869q0-.588-.08-1.43-.08-.91-.28-1.378-.107-.227-.254-.227-.294 0-.428.561-.134.776-.134 1.404-.04.535-.04 1.672 0 .762.04 1.257 0 .628.134 1.457.134.695.428.695zM237.192 89.701q-.053 0-.093-.013-.201-.12-.335-.268-.04-.067-.053-.067-.014-.026-.04-.026l-.027-.014-.054-.053-1.136-1.685q-.08-.174-.227-.374-.094-.094-.16-.2-.054-.081-.108-.081-.04 0-.067.04-.013.04-.026.107-.04.361-.04.976 0 .588-.067.95-.04.173-.12.173h-.08q-.028-.013-.054-.013l-.014-.013q-.468.04-1.404.093-.91.054-1.39.054-.134 0-.214-.027H230.828l-.482-.16-.04-.108q0-.013-.013-.053v-.107q0-.08-.027-.294-.067-.816-.054-.642l-.093-1.203-.04-.495q0-.24-.014-.428-.013-.187-.026-.321l-.027-.294q-.04-.548-.04-1.03v-.04q.013-.027.013-.107.027-.08.027-.254l.013-.24.014-.161q0-.28-.027-.816-.054-.334-.054-.855 0-.75.094-1.097.12-.481.401-.481 1.511 0 3.076.04.347 0 1.043.027l.521.013q1.07.027 1.484.027 1.725.08 2.608.869.4.334.588.802.2.468.2 1.003 0 .615-.227 1.137-.187.414-.535.762-.334.334-.762.535.08.04.214.173.054.067.187.174l.188.134q.04.067.093.134.054.053.107.12l.629.775q.428.549.548.803.093.174.093.267 0 .134-.107.24-.106.108-.32.268-.16.12-.375.228-.2.107-.307.2l-.495.268q-.268.147-.575.254-.013 0-.04.013-.014.013-.054.027-.08.04-.44.147-.068.04-.228.067-.04.026-.094.04-.053.013-.08.013h-.067q-.013.067-.053.067h-.04zM235 84.981q.415 0 .655-.414.228-.375.254-.856.027-.281.027-.669v-.147q0-.307-.107-.642-.107-.428-.441-.615-.147-.12-.388-.12-.067 0-.107.16-.12.295-.134.936-.053.268-.053.629l-.013.401q-.027.776-.027 1.284 0 .013.013.026.014.014.027.014l.094.013zM245.333 89.26q-.173 0-.24-.267-.014-.04-.014-.134 0-.134.054-.401.027-.174.04-.268l.04-.16q.401-1.886.789-3.316l.936-4.226q0-.026.04-.08.04-.053.094-.067h.067q0 .014.04.014.16 0 .36-.04.201-.04.362-.04.294 0 .548.04.12 0 .267.013.147.013.308.013.053 0 .12-.026h.548l.321-.014q.094-.013.228-.013.107 0 .107-.014h1.23q.749 0 .99.027.04 0 .106.014.08 0 .094.026.093 0 .187-.013.094-.014.174-.014.187-.04.36-.04.081 0 .161.04t.174.04l.067-.013h.04q.04.027.08.08.054.04.054.067l.936 4.226q.428 1.564.775 3.316 0 .08.054.174.013.093.04.254.027.16.027.267.013.054.013.147 0 .187-.08.308-.054.08-.16.08h-.174q-.2 0-.308-.014h-.949q-.107 0-.107-.013h-.843v-.027q-.053-.026-.133-.026l-.014.013-.013.013q0 .027-.027.027h-.147q-.067-.027-.267-.027-.401-.026-.629-.026-.08-.12-.174-.482-.08-.36-.173-.802-.027-.214-.054-.294-.28.053-.735.053H250.12l-.093.428q-.174.883-.281 1.097-.054 0-.134.026l-.053.027h-.067q-.08 0-.12-.027-.027-.026-.067-.026l-.602.026H248.289q-.054.027-.134.027h-1.404q-.147.014-.602.014h-.348q-.107.013-.307.013zm6.178-3.276l-.094-.655q-.04-.187-.133-.709-.027-.134-.134-.722l-.107-.642q-.04-.267-.08-.468l-.014-.174q-.04-.067-.04-.12l-.013-.08q-.013.027-.013.08 0 .054-.027.067v.053l-.027.174q-.013.094-.04.214-.013.107-.04.24l-.067.375q-.147.843-.174.976-.013.148-.067.442-.026.093-.053.28l-.107.616h.682l.093-.027h.027q.16 0 .24.027.054 0 .094.026.054.014.094.027zM261.285 89.554q-1.043 0-1.872-.481-.936-.455-1.538-1.498-.668-1.177-.668-2.781 0-1.137.4-2.046.402-.91 1.15-1.538.736-.615 1.726-.936.99-.32 2.153-.32 1.711 0 3.53.869l-.522 2.273-.227-.067q-.12-.04-.281-.08-.735-.188-1.083-.241-.321-.054-.522-.054-.842 0-1.283.455-.522.522-.522 1.752 0 1.123.335 1.604.28.455.829.455.347 0 .802-.187 0-.214-.027-.642l-.013-.294q-.014-.308-.014-.91v-.36q0-.12.04-.161.04-.053.148-.053.04.013.227.013h1.417q.629 0 .83-.013.36 0 .467.013.174.04.228.134.067.08.067.267 0 .067.013.12V87l-.027.12q-.013.067-.013.148v.067q0 .842-.027 1.176-.027.548-.093.696-.348 0-.522.026l-.294.014h-.04q-.12 0-.134-.014-.013-.013-.027-.013v-.013h-.04l-.026.026v.014h-1.698q-.04.013-.108.013-.053 0-.093-.08-.094-.24-.107-.575-.027-.16-.054-.468-.12.682-.842 1.056-.655.361-1.645.361zM268.681 89.26q-.174 0-.24-.267-.014-.04-.014-.134 0-.134.053-.401.027-.174.04-.268l.04-.16q.402-1.886.79-3.316l.936-4.226q0-.026.04-.08.04-.053.093-.067h.067q0 .014.04.014.16 0 .361-.04.2-.04.361-.04.294 0 .548.04.12 0 .268.013.147.013.307.013.054 0 .12-.026H273.04l.32-.014q.095-.013.228-.013.107 0 .107-.014h1.23q.75 0 .99.027.04 0 .107.014.08 0 .093.026.094 0 .188-.013.093-.014.173-.014.188-.04.361-.04.08 0 .161.04.08.04.174.04l.067-.013h.04q.04.027.08.08.053.04.053.067l.936 4.226q.428 1.564.776 3.316 0 .08.054.174.013.093.04.254.026.16.026.267.014.054.014.147 0 .187-.08.308-.054.08-.16.08h-.175q-.2 0-.307-.014h-.95q-.107 0-.107-.013h-.842v-.027q-.053-.026-.134-.026l-.013.013-.014.013q0 .027-.026.027h-.147q-.067-.027-.268-.027-.401-.026-.628-.026-.08-.12-.174-.482-.08-.36-.174-.802-.027-.214-.053-.294-.281.053-.736.053h-.802l-.094.428q-.174.883-.28 1.097-.054 0-.134.026l-.054.027h-.067q-.08 0-.12-.027-.027-.026-.067-.026l-.602.026H271.636q-.054.027-.134.027h-1.404q-.147.014-.602.014h-.347q-.107.013-.308.013zm6.178-3.276l-.094-.655q-.04-.187-.134-.709-.026-.134-.133-.722l-.107-.642q-.04-.267-.08-.468l-.014-.174q-.04-.067-.04-.12l-.014-.08q-.013.027-.013.08 0 .054-.027.067v.053l-.027.174q-.013.094-.04.214-.013.107-.04.24l-.067.375q-.147.843-.173.976-.014.148-.067.442-.027.093-.054.28l-.107.616h.682l.094-.027h.027q.16 0 .24.027.054 0 .094.026.053.014.093.027zM282.306 89.287q-.134 0-.214-.027h-.602l-.601-.147-.054-.107q-.013 0-.013-.147 0-.187-.014-.308l-.013-.615q-.014-.2-.014-.601l-.026-1.03q0-.334.026-.923l.014-.454q.026-.428.026-1.404v-.268q-.026-.04-.026-.147l-.014-.093q0-.335.04-.696.027-.454.027-.829l-.013-.374q-.014-.147-.014-.348 0-.013-.027-.04-.013-.027-.013-.053 0-.134.107-.228.107-.093.267-.133.214-.067.548-.067h3.303q.014 0 .04.026.027.027.054.04.107.094.267.361.04.08.08.188.054.093.134.307.094.214.254.655l.16.415q.108.2.241.575l.08.214q.054.107.094.214.027.093.054.147.04.04.04.053.093.214.2.214.134 0 .214-.214.014-.013.027-.053.013-.054.067-.16l.2-.442.535-1.136.228-.482q.04-.107.053-.174.027-.08.054-.107.053-.12.254-.414.067-.107.12-.16.04-.014.053-.04.014-.027.04-.027h4.106q.026 0 .066.2l.04 1.31q.027.562.027 1.766v.775q0 .455-.04 1.016-.04.562-.053.722l-.027.268v.468q.013.187.013.561 0 .402.014.602 0 .388.027.535v.535l-.04.107-.602.147h-.602q-.093.027-.227.027-.24 0-.669-.027l-.334-.013q-.094-.014-.214-.027-.12-.014-.294-.014l-.522-.04q-.026 0-.04.014h-.107q-.067 0-.08-.147-.08-.268-.08-.91 0-.427-.014-.668l-.013-.722q-.014-.24-.014-.696 0-.106-.093-.106-.054 0-.107.133l-.147.361-.12.335-.054.16q-.027.08-.067.147l-.067.16q-.12.268-.307.602-.2.361-.495.575-.16.094-.28.094h-.201q-.16 0-.268-.027H286.103q-.535-.856-1.003-1.872l-.2-.495q-.081-.173-.108-.173-.093 0-.093.107v.628q0 .936-.027 1.377-.027.696-.094.963-.013.174-.08.174h-.094l-.066-.014q-.455.027-.723.054-.16.013-.561.04-.401.027-.749.027z" style="line-height:6.26783562px;-inkscape-font-specification:'Sigmar One';text-align:center" font-size="13.371"/>
        <path d="M178.324 109.932q-1.22 0-2.032-.111-1.053-.148-1.903-.536l-.333-.166q-.203-.13-.351-.24-.61-.518-.998-1.165-.314-.332-.573-.923-.498-1.294-.498-3.086 0-2.106.868-3.695.757-1.516 2.014-2.365 1.275-.869 2.882-.98l.222-.018h.24q1.441 0 3.104.591.148.074.647.296.499.221.924.499l-.333 2.402-1.09-.278q-.591-.147-1.108-.147-1.035 0-1.552.776-.555.813-.555 2.642 0 .591.056.831.073 1.164.517 1.719.425.48 1.016.48.554 0 1.238-.351.591-.277 1.294-.758l.184 3.03q-.72.666-1.847 1.128-1.072.425-2.033.425zM188.26 109.913q-1.755 0-2.66-.813-.758-.646-1.035-2.07-.184-.941-.184-2.826 0-1.367.147-2.993 0-.26.037-.74.019-.387.037-1.09.019-.72.019-1.256 0-.277-.037-.388-.037-.259-.037-.407 0-.295.628-.295h1.109q1.182-.037 2.272.074.758.074 1.164.166.5.13.666.37.147.277.147.96 0 .832-.018 1.534-.019.684-.037 1.22-.018.129-.018.406 0 .37-.037 1.256-.037 1.626-.037 2.716 0 .684.055.998.055.296.296.296.499 0 1.09-.24.37-.185.517-.278v-7.427q-.055-.425-.055-.832-.037-.11-.037-.314v-.166q0-.333.13-.462.128-.11.609-.11.536 0 1.386-.056.295 0 .813-.037.37 0 .535-.056.111 0 .26.037.22 0 .369.019l.554.018q.406.019 1.016.148l.518.148q.166.055.203.13.055.073.055.184 0 2.735-.11 5.488-.112 3.621-.112 5.469 0 .739-.702.739h-.942q-.37.037-1.349.074-.554.037-.868.037l-.85.037q-.499 0-.758-.167-.258-.166-.35-.572-.999.499-2.107.794-1.109.277-2.291.277zM205.92 109.932q-1.312 0-2.642-.296-1.312-.314-2.162-.85-.221-.665-.332-1.33-.111-.665-.277-1.903v-.056q.037-.221.24-.332.702.425 1.349.646.646.204 1.422.204h.444l.295.018q.425 0 .869-.13.24-.092.332-.35l-.979-.48q-1.127-.536-2.032-1.146-.943-.684-1.35-1.737-.202-.573-.202-1.256 0-1.663 1.016-2.68.887-.905 2.402-1.293 1.312-.314 2.882-.314.924 0 2.55.203.166.037.462.074l.554.11q.629.112.924.112.019 0 .056.055l.092.093q.074.129.148.129h.037l.037.388q0 .277.055.591.056.462.056.998 0 .462-.056.665-.092.37-.332.536l-1.719-.222h-.443q-.628 0-1.441.13l-.61.129q-.222.037-.222.074 0 .443.573.831.277.148.554.259.277.092.351.13 1.368.387 2.365 1.348.462.444.72.942.26.5.26.961 0 .277-.074.591-.13 1.386-1.053 2.402-.906.906-2.273 1.33-1.183.426-2.846.426zM217.112 109.507q-.259 0-.388-.351-.277-.61-.277-2.218 0-1.552.055-3.566.019-.646.019-1.995l-.056-.074h-2.05q-.24 0-.389-.259-.13-.277-.203-.757-.092-.555-.092-1.59v-.258q0-.185.018-.296V97.7q0-.11.111-.185.11-.092.259-.13.184-.055.554-.055h1.404q.462 0 .702.019l.684.018h6.652q.72 0 .942.019.092.018.259.037.166.018.24.074.13.055.148.148.037.074.037.24v3.049q0 .203-.167.277-.11.037-.295.037h-1.202q-.424 0-.646-.037h-.554q-.167 0-.185.074 0 .018-.019.055-.018.019-.018.055v.906q0 .277-.019.425 0 .536-.073 2.346l-.037.555q-.037.776-.074 1.127v1.755q0 .628-.26.795-.24.092-.332.11l-.462.019q-.72 0-1.016.037l-1.94.018q-.37.019-1.33.019zM234.474 109.932q-2.199 0-3.474-.351-1.774-.462-2.697-1.719-1.072-1.496-1.072-4.157 0-1.903.425-3.233t1.312-2.18q.887-.85 2.272-1.239 1.405-.406 3.419-.406 1.57 0 2.956.48 1.7.61 2.642 1.866 1.164 1.497 1.164 3.936 0 2.845-.85 4.434-.85 1.46-2.457 2.07-1.312.499-3.64.499zm-.148-1.793q.222 0 .351-.277.277-.59.388-1.866.111-1.164.111-2.199v-1.201q0-.813-.11-1.977-.112-1.256-.389-1.903-.148-.314-.35-.314-.407 0-.592.776-.185 1.072-.185 1.94-.055.74-.055 2.31 0 1.053.055 1.737 0 .868.185 2.014.185.96.591.96zM245.475 109.544q-.185 0-.296-.037h-.832l-.831-.204-.074-.147q-.018 0-.018-.204 0-.258-.019-.425l-.018-.85q-.019-.277-.019-.831l-.037-1.423q0-.462.037-1.275l.019-.628q.037-.591.037-1.94v-.37q-.037-.055-.037-.203l-.019-.129q0-.462.056-.96.037-.629.037-1.146l-.019-.518q-.018-.203-.018-.48 0-.019-.037-.056-.019-.036-.019-.073 0-.185.148-.315.148-.129.37-.184.295-.093.757-.093H249.206q.02 0 .056.037.037.037.074.056.148.129.37.499.055.11.11.258.074.13.185.425.13.296.351.906l.222.572q.148.278.333.795l.11.296q.074.147.13.295.037.13.074.203.055.056.055.074.13.296.277.296.185 0 .296-.296.018-.018.037-.074.018-.074.092-.221l.278-.61.739-1.57.314-.666q.055-.148.074-.24.037-.11.074-.148.073-.166.35-.573.093-.147.167-.221.055-.019.074-.056.018-.037.055-.037h5.673q.037 0 .092.277l.055 1.811q.037.776.037 2.44v1.07q0 .629-.055 1.405t-.074.998l-.037.37v.646q.019.259.019.776 0 .554.018.832 0 .535.037.739v.739l-.055.147-.832.204H258.15q-.128.037-.313.037-.333 0-.924-.037l-.462-.019q-.13-.018-.296-.037-.166-.018-.406-.018l-.72-.056q-.038 0-.056.019h-.148q-.092 0-.11-.203-.112-.37-.112-1.257 0-.591-.018-.924l-.019-.997q-.018-.333-.018-.961 0-.148-.13-.148-.073 0-.147.185l-.204.499-.166.462-.074.221q-.037.111-.092.203l-.093.222q-.166.37-.425.832-.277.499-.683.794-.222.13-.388.13h-.277q-.222 0-.37-.037h-.776q-.739-1.183-1.386-2.587l-.277-.684q-.11-.24-.148-.24-.129 0-.129.148v.868q0 1.294-.037 1.903-.037.961-.13 1.33-.018.24-.11.24h-.13l-.092-.018q-.628.037-.998.074-.221.019-.776.056-.554.037-1.034.037zM262.651 109.507q-.13 0-.24-.093-.11-.11-.166-.277-.074-.332-.111-.739-.019-.13-.019-.35v-.241l.019-2.291q0-1.164.055-2.291v-5.84q0-.184.24-.184 1.275 0 1.904-.018h1.847q.056 0 .093-.019.037-.018.092-.018.24-.037.665-.019.314 0 .665.055.111.074.167.037.037 0 .148-.037.277 0 .424.037.167.037.26.167.092.166.147.406.019.185.019.776V102.448q-.019.148-.019.666 0 .554-.037.868l-.018.832q-.019.277-.019.702l-.018.295v1.183q0 1.108-.093 1.884 0 .26-.13.518-.332 0-.96.037-.296 0-.388.037h-.24q-.13 0-.13-.037-.147-.037-.166-.037l-.148.074h-1.7q-.018.018-.295.018H263.113zM277.201 109.488q-1.884 0-2.753-.018-.831 0-1.256-.019l-1.478-.018q-.185 0-.333-.148-.166-.166-.166-.314v-3.418q1.238-1.164 1.995-2.033.462-.425.869-.905.425-.48.517-.591.37-.444.443-.592.185-.24.185-.35 0-.075-.092-.075l-3.51-.074q-.315 0-.518-.425-.093-.258-.166-.96-.037-.296-.037-.85 0-.167.018-.296 0-.277.019-.425 0-.296.037-.406v-.185l.092-.093q.148-.147.37-.147.129 0 .221.037l.204.018q.665 0 1.367-.055.665-.056 1.349-.056 1.755 0 2.623-.037l2.68-.018q1.034 0 1.589.11.24.093.314.149.055.11.055.129v2.956q0 .166-.13.591-.147.388-.554.98-.813 1.256-3.233 3.787.813 0 1.201-.018h2.143q.167 0 .314.13.148.11.148.24V109.119q0 .129-.13.221-.165.074-.406.093-.221.055-.757.055zM285.481 109.488q-.092 0-.277-.018-.185-.037-.443-.056l-.388-.092q-.093-.019-.148-.037-.037-.037-.019-.055 0-.48-.055-1.275 0-.277-.019-.48-.018-.222-.037-.37l-.037-.795q0-.314-.036-.794l-.019-.573q0-.702-.018-1.09-.019-.388-.019-1.626 0-1.164.019-2.402.018-1.238.11-2.347 0-.203.444-.332.277-.037.924-.037 1.496 0 2.198-.056 2.18-.037 3.29-.037h.812q1.515.037 2.328.111.296 0 .425.702.056.13.13.665.055.278.148.684.018.11 0 .222v.11q-.019.185-.204.185-.074-.018-.221-.018-.776 0-1.904.13l-.979.073q-.61.074-.96.093-.056 0-.148.221-.074.24-.167 1.109l-.037.462q0 .24.056.314.055.055.24.055h1.644q.721 0 1.645.093h.222q.24.055.295.185.074.11.093.24l.074 1.644v.056q0 .314-.666.37-.388.091-1.478.091-.942 0-1.22-.018-.535 0-.646.018-.203.056-.259.222-.055.148-.055.518 0 .24-.037.683-.019.222-.019.702 1.201 0 1.774-.037.628-.055 1.774-.055.074 0 .148.13.092.184.295.83.111.37.222.925.037.129.037.277 0 .388-.37.388-.48 0-1.293.037-.425.037-1.33.037-1.94 0-2.92.018zM300.196 109.488l-2.827-.018q-.315 0-.407-.407-.092-.258-.092-.739 0-1.607-.037-2.864-.056-1.81-.056-3.824V97.57q0-.167.148-.314.166-.167.333-.167l2.143.019q.61.018 1.534.018 1.385 0 2.161-.018l.684-.019q1.146-.037 1.81-.037 1.146 0 2.218.444 1.256.48 2.014 1.644.905 1.404.905 3.455 0 1.94-.443 3.234-.425 1.293-1.367 2.125-.943.813-2.476 1.182-1.515.37-3.807.37zm2.586-2.457q.074.018.204.018.147 0 .406-.037.092-.018.13-.037.055-.037.092-.055.221-.259.425-1.09.13-.517.314-1.774.092-1.072.092-1.848v-.35q0-.481-.092-1.442-.13-.96-.37-1.349-.203-.258-.37-.258-.166 0-.295.037-.13.037-.166.055-.037.019-.166.092l-.019 2.218q0 .295-.037.887l-.018.443q-.037.924-.037 1.33z" style="line-height:40.19987869px;-inkscape-font-specification:'Sigmar One';text-align:center" font-size="18.477"/>
        <path d="M193.59 128.493q-.589 0-.846-.019h-2.023q-.147 0-.294-.055-.184-.055-.33-.055l-.166.018q-.184-.055-.184-.202l-1.287-5.828q-.496-2.482-.882-4.541-.092-.074-.166-.478-.018-.22-.018-.68 0-.24.073-.386.092-.166.258-.166H188.405q.128.037.46.037l.827.018h.937l.11.019q.02.018.037.018h.019l.018.037q.019 0 .037-.019.037-.018.074-.018.11-.037.147-.037h.055l.165.019q.203.018.79.018.185.037.424.037.092.165.184.57.11.404.22.9.037.276.184 1.159.055.276.129.699l.11.588q0 .018.018.073.019.037.019.11l.055.368q.037.147.073.46.037.092.056.239.018.129.036.22l.037.184q.019.074.019.166l.036.165.019.074q0 .055.037.092v.11l.036-.11v-.092l.019-.074q0-.055.037-.165 0-.129.055-.35.037-.11.055-.22.018-.129.037-.239l.073-.46q.037-.11.055-.22.019-.11.019-.147l.018-.184q.533-2.776.754-3.53.018-.11.055-.202.055-.11.166-.166.018-.037.11-.055.11-.018.166-.037.386-.055.551-.055H196.79l.643.018q.166.019.386.019h.055l.019-.019.018-.018q.074 0 .092.037.037 0 .037.018h.018q.331.019.773.019.183.018.386.018.165 0 .183.037.019 0 .056-.019.036-.018.073-.018.037-.037.184-.037h.33q.295 0 .35.074.147.551.24 1.379l.054.404q.148 1.048.313 1.765l.037.22q.055.387.055.479.018.184.092.588.037.423.092.588 0 .203.036.46.019.092.037.147.019.037.019.055 0 .092.018.166l.018.11q.037-.092.056-.11v-.166l.018-.202.073-.46.092-.588q.019-.239.092-.588l.055-.478q.019-.092.019-.147.018-.056.018-.074.11-.515.147-.772l.074-.386q.257-1.36.423-1.875.055-.313.183-.515.11 0 .24-.019.128-.018.257-.018.147 0 .33-.037h.038q.055 0 .055.037v.018q0 .019.018.019.074 0 .11-.019.037-.018.056-.018l.018-.037H204.897q.202 0 .349-.018h.46q.349 0 .478-.037h.698q.147 0 .22.166.093.165.093.386-.092.239-.166.68-.018.202-.018.478-.607 2.85-1.232 5.093l-1.287 5.276q-.165.037-.184.11v.092l-.184-.018q-.147 0-.22.018l-.22.019h-.92q-.717 0-1.066-.019h-2.482q-.184-.018-.515-.018l-.184.018q-.184-.055-.184-.202l-1.232-6.067-1.213 6.067q-.092.294-.588.294h-.865q-.239.019-.845.019zM210.594 128.474q-.092 0-.276-.018-.183-.037-.44-.055l-.387-.092q-.092-.019-.147-.037-.037-.037-.018-.055 0-.478-.055-1.269 0-.275-.019-.478-.018-.22-.037-.367l-.036-.79q0-.313-.037-.792l-.019-.57q0-.698-.018-1.084-.018-.386-.018-1.618 0-1.158.018-2.39.018-1.232.11-2.335 0-.202.441-.33.276-.038.92-.038 1.489 0 2.188-.055 2.169-.037 3.272-.037h.809q1.508.037 2.317.11.294 0 .422.7.056.128.13.661.054.276.146.68.019.11 0 .22v.111q-.018.184-.202.184-.074-.018-.22-.018-.773 0-1.894.128l-.975.074q-.606.073-.956.092-.055 0-.147.22-.073.24-.165 1.104l-.037.46q0 .238.055.312.055.055.24.055h1.635q.717 0 1.637.092h.22q.24.055.294.184.074.11.092.239l.074 1.636v.055q0 .313-.662.368-.386.092-1.47.092-.938 0-1.214-.019-.533 0-.644.019-.202.055-.257.22-.055.147-.055.515 0 .24-.037.68-.018.221-.018.699 1.195 0 1.765-.037.625-.055 1.764-.055.074 0 .148.129.091.184.294.827.11.368.22.92.037.128.037.275 0 .386-.368.386-.478 0-1.287.037-.422.037-1.323.037-1.93 0-2.905.018zM226.173 128.915q-1.305 0-2.096-.073-.772-.055-1.232-.22-.478-.203-.698-.552-.221-.35-.221-.938v-.46q.018-.183.018-.551.019-.184.019-.552.018-.183.018-.386 0-.698-.037-2.096l-.018-1.103q-.092-1.305-.092-3.162V117.627q0-.643.055-.938.037-.091.037-.165.019-.074.019-.11.018-.331.275-.497.147-.055.405-.055.165 0 .35-.018.201-.019.422-.019.294 0 .92-.036.165-.019.385-.037.24-.019.533-.019.589-.036.828-.036 1.507 0 3.53.294 1.415.165 2.206.349 1.342.331 2.04.864.902.772.902 1.967 0 1.545-1.269 2.335-.092.055-.166.092-.073.019-.147.055-.33.092-.57.24-.036.018-.091.073-.056.037-.092.11v.019q.018 0 .018.018l.037.037q1.268.515 2.059 1.268.588.662.588 1.38 0 1.01-1.231 2.04-1.214.956-2.997 1.452-1.324.368-2.61.515-.975.11-2.097.11zm2.188-8.585q.092 0 .202-.056.478-.165.9-.404.258-.11.497-.22.258-.13.35-.166l.165-.074.147-.036q.074 0 .074-.092 0-.313-.68-.423-.405-.092-1.012-.092-.551 0-.698.423-.092.22-.092.551v.497q0 .092.147.092zm-.276 5.313q.018 0 .018-.018 1.287-.626 2.924-1.361.073-.073.092-.073l.091-.056q-.772-.239-1.525-.312-.957-.037-1.582-.037-.202 0-.202.257v1.471q0 .129.147.129zM242.027 128.915q-1.306 0-2.63-.294-1.305-.312-2.15-.845-.221-.662-.331-1.324-.11-.662-.276-1.894v-.055q.037-.22.239-.33.698.422 1.342.643.643.202 1.416.202h.44l.295.018q.423 0 .864-.128.24-.092.331-.35l-.974-.478q-1.122-.533-2.023-1.14-.937-.68-1.342-1.728-.202-.57-.202-1.25 0-1.655 1.011-2.666.883-.9 2.39-1.287 1.305-.312 2.868-.312.92 0 2.537.202.166.037.46.073l.552.11q.625.111.919.111.018 0 .055.055l.092.092q.073.129.147.129h.037l.036.386q0 .276.056.588.055.46.055.993 0 .46-.055.662-.092.367-.331.533l-1.71-.22h-.441q-.625 0-1.434.128l-.607.129q-.22.036-.22.073 0 .441.57.827.275.148.55.258.276.092.35.129 1.36.386 2.353 1.342.46.44.717.937.258.497.258.956 0 .276-.074.589-.128 1.379-1.048 2.39-.9.9-2.261 1.323-1.177.423-2.831.423zM250.717 128.493q-.128 0-.239-.092-.11-.11-.165-.276-.074-.331-.11-.735-.019-.13-.019-.35v-.239l.019-2.28q0-1.158.055-2.28v-5.809q0-.184.239-.184 1.268 0 1.893-.018h1.839q.055 0 .092-.019.037-.018.092-.018.239-.037.662-.018.312 0 .661.055.11.073.166.037.037 0 .147-.037.276 0 .423.037.165.036.257.165.092.165.147.405.019.183.019.772V121.47q-.019.147-.019.661 0 .552-.036.865l-.019.827q-.018.276-.018.698l-.019.295v1.176q0 1.103-.092 1.876 0 .257-.128.514-.331 0-.956.037-.294 0-.386.037h-.239q-.13 0-.13-.037-.146-.037-.165-.037l-.147.074h-1.691q-.018.018-.294.018h-1.379zM261.996 128.493q-.257 0-.386-.35-.276-.606-.276-2.206 0-1.544.055-3.548.019-.644.019-1.986l-.056-.073h-2.04q-.24 0-.386-.258-.13-.275-.203-.753-.092-.552-.092-1.582v-.257q0-.184.019-.294V116.745q0-.11.11-.184.11-.092.258-.129.183-.055.551-.055h1.397q.46 0 .699.018l.68.019h6.619q.717 0 .938.018.091.019.257.037.165.018.239.073.129.056.147.148.037.073.037.239v3.033q0 .202-.166.276-.11.037-.294.037H268.927q-.423 0-.643-.037h-.552q-.165 0-.184.073 0 .019-.018.056-.019.018-.019.055v.901q0 .275-.018.422 0 .534-.074 2.335l-.036.552q-.037.772-.074 1.121v1.747q0 .625-.257.79-.24.092-.331.11l-.46.02q-.717 0-1.01.036l-1.931.018q-.368.019-1.324.019zM273.793 128.474q-.092 0-.276-.018-.184-.037-.441-.055l-.386-.092q-.092-.019-.147-.037-.037-.037-.019-.055 0-.478-.055-1.269 0-.275-.018-.478-.019-.22-.037-.367l-.037-.79q0-.313-.037-.792l-.018-.57q0-.698-.019-1.084-.018-.386-.018-1.618 0-1.158.018-2.39.019-1.232.11-2.335 0-.202.442-.33.275-.038.919-.038 1.49 0 2.188-.055 2.17-.037 3.272-.037h.81q1.507.037 2.316.11.294 0 .423.7.055.128.128.661.056.276.147.68.019.11 0 .22v.111q-.018.184-.202.184-.073-.018-.22-.018-.773 0-1.894.128l-.975.074q-.606.073-.956.092-.055 0-.147.22-.073.24-.165 1.104l-.037.46q0 .238.055.312.055.055.24.055h1.636q.717 0 1.636.092h.22q.24.055.295.184.073.11.092.239l.073 1.636v.055q0 .313-.662.368-.386.092-1.47.092-.938 0-1.214-.019-.533 0-.644.019-.202.055-.257.22-.055.147-.055.515 0 .24-.037.68-.018.221-.018.699 1.195 0 1.765-.037.625-.055 1.765-.055.073 0 .147.129.091.184.294.827.11.368.22.92.037.128.037.275 0 .386-.367.386-.478 0-1.287.037-.423.037-1.324.037-1.93 0-2.905.018zM290.144 128.915q-1.305 0-2.63-.294-1.305-.312-2.15-.845-.22-.662-.331-1.324-.11-.662-.276-1.894v-.055q.037-.22.239-.33.699.422 1.342.643.644.202 1.416.202h.441l.294.018q.423 0 .864-.128.24-.092.331-.35l-.974-.478q-1.122-.533-2.023-1.14-.937-.68-1.342-1.728-.202-.57-.202-1.25 0-1.655 1.011-2.666.883-.9 2.39-1.287 1.306-.312 2.868-.312.92 0 2.538.202.165.037.46.073l.55.11q.626.111.92.111.018 0 .055.055l.092.092q.074.129.147.129h.037l.037.386q0 .276.055.588.055.46.055.993 0 .46-.055.662-.092.367-.33.533l-1.71-.22h-.442q-.625 0-1.434.128l-.607.129q-.22.036-.22.073 0 .441.57.827.276.148.551.258.276.092.35.129 1.36.386 2.353 1.342.46.44.717.937.257.497.257.956 0 .276-.073.589-.129 1.379-1.048 2.39-.901.9-2.261 1.323-1.177.423-2.832.423z" style="line-height:40px;-inkscape-font-specification:'Sigmar One';text-align:center" font-size="18.385"/>
    </g>
</svg>
